<svg width="41.201" height="63.601" viewBox="0 0 41.201 63.601" xmlns="http://www.w3.org/2000/svg"><g id="svgGroup" stroke-linecap="round" fill-rule="evenodd" font-size="9pt" stroke="#e0e0e0" stroke-width="0.25mm" fill="#e0e0e0" style="stroke:#e0e0e0;stroke-width:0.25mm;fill:#e0e0e0"><path d="M 34.4 11.4 L 34.8 30 A 72.653 72.653 0 0 1 33.923 41.843 Q 30.308 63.6 11.8 63.6 A 16.603 16.603 0 0 1 6.045 62.619 A 15.452 15.452 0 0 1 3.65 61.5 Q 0 59.4 0 55 Q 0 52.3 1.4 50.55 A 4.482 4.482 0 0 1 4.648 48.821 A 5.919 5.919 0 0 1 5.15 48.8 A 7.582 7.582 0 0 1 5.919 48.836 Q 6.687 48.915 7.082 49.168 A 0.83 0.83 0 0 1 7.5 49.9 Q 7.5 50.4 6.9 51.85 A 7.795 7.795 0 0 0 6.348 53.935 A 7.05 7.05 0 0 0 6.3 54.75 Q 6.3 56.146 7.876 57.728 A 10.449 10.449 0 0 0 8 57.85 A 5.332 5.332 0 0 0 10.046 59.062 Q 11.347 59.5 13.1 59.5 A 13.893 13.893 0 0 0 16.067 59.198 A 10.585 10.585 0 0 0 19 58.1 A 9.999 9.999 0 0 0 22.559 54.697 A 12.297 12.297 0 0 0 23 53.95 Q 24.5 51.2 25.45 48.3 A 23.611 23.611 0 0 0 26.085 45.914 Q 26.361 44.629 26.562 43.138 A 50.31 50.31 0 0 0 26.8 41 Q 27.36 34.932 27.398 27.338 A 222.104 222.104 0 0 0 27.4 26.25 Q 27.4 18 27.6 12.6 Q 14.8 14.8 14.8 23.6 A 9.688 9.688 0 0 1 14.698 25.055 Q 14.578 25.843 14.318 26.484 A 4.509 4.509 0 0 1 13.75 27.5 A 3.815 3.815 0 0 1 12.886 28.353 A 3.048 3.048 0 0 1 11.1 28.9 A 3.782 3.782 0 0 1 9.859 28.713 Q 8.171 28.128 8.103 25.707 A 7.358 7.358 0 0 1 8.1 25.5 A 12.045 12.045 0 0 1 12.196 16.356 A 17.291 17.291 0 0 1 13.45 15.3 A 27.44 27.44 0 0 1 18.813 12.14 Q 21.485 10.926 24.714 10.016 A 55.972 55.972 0 0 1 28 9.2 A 12.936 12.936 0 0 1 29.135 5.618 A 10.737 10.737 0 0 1 31.4 2.55 A 14.49 14.49 0 0 1 32.799 1.375 Q 34.463 0.162 35.917 0.019 A 3.925 3.925 0 0 1 36.3 0 A 6.295 6.295 0 0 1 37.86 0.183 A 4.523 4.523 0 0 1 39.85 1.25 A 4.141 4.141 0 0 1 41.151 3.827 A 5.843 5.843 0 0 1 41.2 4.6 Q 41.2 8.922 35.909 10.91 A 18.275 18.275 0 0 1 34.4 11.4 Z M 37.1 3.4 A 1.903 1.903 0 0 0 35.455 4.356 Q 34.899 5.198 34.639 6.779 A 15.298 15.298 0 0 0 34.5 7.9 A 12.545 12.545 0 0 0 35.814 7.424 Q 37.117 6.861 37.677 6.152 A 1.821 1.821 0 0 0 38.1 5 Q 38.1 3.4 37.1 3.4 Z" vector-effect="non-scaling-stroke"/></g></svg>