<svg id="wave" style="transform:rotate(0deg); transition: 0.3s" viewBox="0 0 1440 100" version="1.1" xmlns="http://www.w3.org/2000/svg"><defs><linearGradient id="sw-gradient-0" x1="0" x2="0" y1="1" y2="0"><stop stop-color="rgba(243, 106, 62, 1)" offset="0%"></stop><stop stop-color="rgba(255, 179, 11, 1)" offset="100%"></stop></linearGradient></defs><path style="transform:translate(0, 0px); opacity:1" fill="url(#sw-gradient-0)" d="M0,40L48,40C96,40,192,40,288,35C384,30,480,20,576,28.3C672,37,768,63,864,76.7C960,90,1056,90,1152,90C1248,90,1344,90,1440,76.7C1536,63,1632,37,1728,36.7C1824,37,1920,63,2016,63.3C2112,63,2208,37,2304,31.7C2400,27,2496,43,2592,56.7C2688,70,2784,80,2880,81.7C2976,83,3072,77,3168,71.7C3264,67,3360,63,3456,53.3C3552,43,3648,27,3744,30C3840,33,3936,57,4032,68.3C4128,80,4224,80,4320,75C4416,70,4512,60,4608,55C4704,50,4800,50,4896,48.3C4992,47,5088,43,5184,38.3C5280,33,5376,27,5472,28.3C5568,30,5664,40,5760,46.7C5856,53,5952,57,6048,60C6144,63,6240,67,6336,56.7C6432,47,6528,23,6624,11.7C6720,0,6816,0,6864,0L6912,0L6912,100L6864,100C6816,100,6720,100,6624,100C6528,100,6432,100,6336,100C6240,100,6144,100,6048,100C5952,100,5856,100,5760,100C5664,100,5568,100,5472,100C5376,100,5280,100,5184,100C5088,100,4992,100,4896,100C4800,100,4704,100,4608,100C4512,100,4416,100,4320,100C4224,100,4128,100,4032,100C3936,100,3840,100,3744,100C3648,100,3552,100,3456,100C3360,100,3264,100,3168,100C3072,100,2976,100,2880,100C2784,100,2688,100,2592,100C2496,100,2400,100,2304,100C2208,100,2112,100,2016,100C1920,100,1824,100,1728,100C1632,100,1536,100,1440,100C1344,100,1248,100,1152,100C1056,100,960,100,864,100C768,100,672,100,576,100C480,100,384,100,288,100C192,100,96,100,48,100L0,100Z"></path><defs><linearGradient id="sw-gradient-1" x1="0" x2="0" y1="1" y2="0"><stop stop-color="rgba(243, 106, 62, 1)" offset="0%"></stop><stop stop-color="rgba(255, 179, 11, 1)" offset="100%"></stop></linearGradient></defs><path style="transform:translate(0, 50px); opacity:0.9" fill="url(#sw-gradient-1)" d="M0,20L48,28.3C96,37,192,53,288,56.7C384,60,480,50,576,38.3C672,27,768,13,864,8.3C960,3,1056,7,1152,15C1248,23,1344,37,1440,45C1536,53,1632,57,1728,51.7C1824,47,1920,33,2016,36.7C2112,40,2208,60,2304,58.3C2400,57,2496,33,2592,31.7C2688,30,2784,50,2880,55C2976,60,3072,50,3168,43.3C3264,37,3360,33,3456,36.7C3552,40,3648,50,3744,60C3840,70,3936,80,4032,80C4128,80,4224,70,4320,60C4416,50,4512,40,4608,36.7C4704,33,4800,37,4896,31.7C4992,27,5088,13,5184,11.7C5280,10,5376,20,5472,28.3C5568,37,5664,43,5760,40C5856,37,5952,23,6048,25C6144,27,6240,43,6336,45C6432,47,6528,33,6624,23.3C6720,13,6816,7,6864,3.3L6912,0L6912,100L6864,100C6816,100,6720,100,6624,100C6528,100,6432,100,6336,100C6240,100,6144,100,6048,100C5952,100,5856,100,5760,100C5664,100,5568,100,5472,100C5376,100,5280,100,5184,100C5088,100,4992,100,4896,100C4800,100,4704,100,4608,100C4512,100,4416,100,4320,100C4224,100,4128,100,4032,100C3936,100,3840,100,3744,100C3648,100,3552,100,3456,100C3360,100,3264,100,3168,100C3072,100,2976,100,2880,100C2784,100,2688,100,2592,100C2496,100,2400,100,2304,100C2208,100,2112,100,2016,100C1920,100,1824,100,1728,100C1632,100,1536,100,1440,100C1344,100,1248,100,1152,100C1056,100,960,100,864,100C768,100,672,100,576,100C480,100,384,100,288,100C192,100,96,100,48,100L0,100Z"></path></svg>