<svg width="218.872" height="44.044" viewBox="0 0 218.872 44.044" xmlns="http://www.w3.org/2000/svg"><g id="svgGroup" stroke-linecap="round" fill-rule="evenodd" font-size="9pt" stroke="#cfd7e6" stroke-width="0.25mm" fill="#cfd7e6" style="stroke:#cfd7e6;stroke-width:0.25mm;fill:#cfd7e6"><path d="M 127.368 37.647 L 128.467 38.745 A 15.361 15.361 0 0 1 127.578 39.744 A 20.097 20.097 0 0 1 126.709 40.589 Q 125.684 41.529 124.329 42.298 A 13.308 13.308 0 0 1 122.31 43.222 A 15.99 15.99 0 0 1 121.289 43.555 Q 119.605 44.043 117.554 44.043 A 14.715 14.715 0 0 1 112.666 43.241 A 13.841 13.841 0 0 1 111.609 42.823 Q 108.862 41.602 106.824 39.026 A 15.837 15.837 0 0 1 105.005 36.087 Q 104.205 34.436 103.626 32.422 Q 102.466 28.394 102.466 22.779 Q 102.466 17.899 103.511 14.127 A 22.949 22.949 0 0 1 103.687 13.526 A 24.054 24.054 0 0 1 105.024 10.082 A 17.617 17.617 0 0 1 107.007 6.873 A 14.428 14.428 0 0 1 110.159 3.876 A 13.049 13.049 0 0 1 111.939 2.845 A 13.795 13.795 0 0 1 117.969 1.49 A 19.452 19.452 0 0 1 120.119 1.603 A 15.049 15.049 0 0 1 121.839 1.892 A 11.84 11.84 0 0 1 123.459 2.384 A 8.893 8.893 0 0 1 124.854 3.064 A 6.211 6.211 0 0 1 126.1 4.045 A 5.292 5.292 0 0 1 126.819 4.969 Q 127.515 6.104 127.515 7.544 A 4.41 4.41 0 0 1 127.42 8.436 A 5.433 5.433 0 0 1 127.295 8.924 A 4.209 4.209 0 0 1 126.624 10.242 Q 126.172 10.84 125.513 11.219 A 2.829 2.829 0 0 1 124.503 11.56 A 3.653 3.653 0 0 1 123.975 11.597 A 2.874 2.874 0 0 1 123.511 11.562 Q 123.057 11.487 122.766 11.255 A 1.979 1.979 0 0 1 122.202 10.522 A 2.418 2.418 0 0 1 122.131 10.352 A 4.298 4.298 0 0 1 121.948 9.69 A 5.723 5.723 0 0 1 121.863 9.07 Q 121.802 8.35 121.777 7.593 A 17.257 17.257 0 0 0 121.668 6.116 A 4.824 4.824 0 0 0 121.529 5.396 A 3.781 3.781 0 0 0 121.326 4.834 A 2.19 2.19 0 0 0 120.581 3.931 A 1.683 1.683 0 0 0 120.1 3.703 Q 119.722 3.589 119.214 3.589 A 3.975 3.975 0 0 0 118.642 3.633 Q 118.351 3.676 118.026 3.759 A 7.958 7.958 0 0 0 117.676 3.858 A 4.456 4.456 0 0 0 116.795 4.241 Q 116.413 4.456 116.025 4.757 A 7.785 7.785 0 0 0 115.881 4.871 Q 114.966 5.616 114.087 6.958 Q 113.208 8.301 112.512 10.437 A 23.08 23.08 0 0 0 111.991 12.324 Q 111.643 13.813 111.389 15.625 A 40.527 40.527 0 0 0 111.105 18.396 Q 111.002 19.856 110.973 21.507 A 75.542 75.542 0 0 0 110.962 22.827 A 62.836 62.836 0 0 0 111.022 25.646 Q 111.085 27.037 111.212 28.268 A 33.629 33.629 0 0 0 111.389 29.688 Q 111.817 32.593 112.537 34.632 Q 113.109 36.252 113.813 37.402 A 9.247 9.247 0 0 0 114.185 37.964 Q 115.043 39.161 115.985 39.867 A 6.112 6.112 0 0 0 116.138 39.978 A 7.285 7.285 0 0 0 117.195 40.601 A 5.647 5.647 0 0 0 118.189 40.967 A 8.524 8.524 0 0 0 119.274 41.18 A 6.7 6.7 0 0 0 120.117 41.236 A 7.908 7.908 0 0 0 121.985 41.007 A 8.744 8.744 0 0 0 122.046 40.991 Q 123.023 40.747 123.963 40.283 A 11.086 11.086 0 0 0 125.769 39.16 Q 126.636 38.501 127.368 37.647 Z M 191.406 16.187 L 191.406 33.741 A 4.542 4.542 0 0 0 191.414 33.999 A 5.759 5.759 0 0 0 191.431 34.217 Q 191.455 34.473 191.553 34.705 A 0.9 0.9 0 0 0 191.846 35.083 Q 191.994 35.194 192.239 35.221 A 1.542 1.542 0 0 0 192.407 35.23 A 1.2 1.2 0 0 0 193.209 34.925 A 1.538 1.538 0 0 0 193.237 34.9 A 10.711 10.711 0 0 0 193.911 34.239 A 9.941 9.941 0 0 0 193.921 34.229 L 194.507 34.741 Q 194.141 35.254 193.591 35.877 A 7.307 7.307 0 0 1 192.825 36.622 A 9.147 9.147 0 0 1 192.261 37.061 A 7.379 7.379 0 0 1 190.995 37.787 A 8.74 8.74 0 0 1 190.479 38.001 A 5.756 5.756 0 0 1 189.195 38.317 A 7.516 7.516 0 0 1 188.208 38.379 A 6.929 6.929 0 0 1 187.322 38.325 Q 186.862 38.266 186.468 38.141 A 4.052 4.052 0 0 1 186.34 38.098 A 4.605 4.605 0 0 1 185.566 37.745 A 3.688 3.688 0 0 1 184.998 37.342 A 2.987 2.987 0 0 1 184.18 36.219 A 3.562 3.562 0 0 1 183.911 34.839 L 183.911 33.741 A 19.179 19.179 0 0 1 181.764 35.739 A 17.363 17.363 0 0 1 181.348 36.06 A 18.308 18.308 0 0 1 180.266 36.81 A 20.093 20.093 0 0 1 180.103 36.914 Q 179.443 37.329 178.735 37.659 A 8.491 8.491 0 0 1 177.271 38.184 A 6.036 6.036 0 0 1 175.757 38.379 Q 174.292 38.379 173.255 37.854 A 4.925 4.925 0 0 1 172.115 37.069 A 4.367 4.367 0 0 1 171.582 36.475 Q 170.947 35.62 170.654 34.546 A 8.134 8.134 0 0 1 170.361 32.398 L 170.361 17.285 A 4.542 4.542 0 0 0 170.354 17.027 A 5.759 5.759 0 0 0 170.337 16.809 Q 170.313 16.553 170.215 16.321 A 0.9 0.9 0 0 0 169.922 15.943 Q 169.774 15.832 169.529 15.805 A 1.542 1.542 0 0 0 169.36 15.796 A 1.162 1.162 0 0 0 168.711 15.997 A 1.569 1.569 0 0 0 168.543 16.126 A 6.874 6.874 0 0 0 168.063 16.585 A 5.844 5.844 0 0 0 167.871 16.797 L 167.261 16.284 Q 167.627 15.772 168.176 15.149 A 7.307 7.307 0 0 1 168.943 14.404 A 9.147 9.147 0 0 1 169.507 13.965 Q 170.288 13.404 171.301 13.025 A 5.961 5.961 0 0 1 172.731 12.691 A 7.468 7.468 0 0 1 173.56 12.647 A 6.984 6.984 0 0 1 174.448 12.701 Q 174.919 12.761 175.325 12.889 A 4.203 4.203 0 0 1 175.44 12.928 A 4.552 4.552 0 0 1 176.177 13.257 A 3.492 3.492 0 0 1 176.782 13.684 A 3.045 3.045 0 0 1 177.588 14.807 A 3.562 3.562 0 0 1 177.857 16.187 L 177.857 32.495 A 2.292 2.292 0 0 0 177.934 33.078 A 2.637 2.637 0 0 0 177.966 33.191 A 2.281 2.281 0 0 0 178.284 33.838 A 1.637 1.637 0 0 0 178.809 34.314 A 1.343 1.343 0 0 0 179.252 34.471 A 1.817 1.817 0 0 0 179.566 34.497 A 2.918 2.918 0 0 0 180.628 34.291 A 3.623 3.623 0 0 0 180.982 34.131 A 6.778 6.778 0 0 0 182.276 33.264 A 11.025 11.025 0 0 0 182.869 32.721 A 8.512 8.512 0 0 0 183.289 32.276 Q 183.716 31.787 183.911 31.543 L 183.911 17.285 A 4.542 4.542 0 0 0 183.904 17.027 A 5.759 5.759 0 0 0 183.887 16.809 Q 183.862 16.553 183.765 16.321 A 0.9 0.9 0 0 0 183.472 15.943 Q 183.324 15.832 183.079 15.805 A 1.542 1.542 0 0 0 182.91 15.796 A 1.162 1.162 0 0 0 182.261 15.997 A 1.569 1.569 0 0 0 182.092 16.126 A 6.874 6.874 0 0 0 181.612 16.585 A 5.844 5.844 0 0 0 181.421 16.797 L 180.811 16.284 Q 181.177 15.772 181.726 15.149 A 7.307 7.307 0 0 1 182.493 14.404 A 9.147 9.147 0 0 1 183.057 13.965 Q 183.838 13.404 184.851 13.025 A 5.961 5.961 0 0 1 186.281 12.691 A 7.468 7.468 0 0 1 187.109 12.647 A 6.984 6.984 0 0 1 187.998 12.701 Q 188.469 12.761 188.875 12.889 A 4.203 4.203 0 0 1 188.989 12.928 A 4.552 4.552 0 0 1 189.727 13.257 A 3.492 3.492 0 0 1 190.332 13.684 A 3.045 3.045 0 0 1 191.138 14.807 A 3.562 3.562 0 0 1 191.406 16.187 Z M 34.937 19.483 L 34.937 35.791 A 2.603 2.603 0 0 1 34.923 36.048 Q 34.9 36.278 34.839 36.56 A 1.633 1.633 0 0 1 34.607 37.106 A 2.205 2.205 0 0 1 34.363 37.415 A 2.123 2.123 0 0 1 33.995 37.722 Q 33.682 37.932 33.24 38.098 A 3.632 3.632 0 0 1 32.663 38.258 Q 32.06 38.377 31.228 38.379 A 11.817 11.817 0 0 1 31.201 38.379 A 8.945 8.945 0 0 1 30.446 38.349 Q 29.675 38.284 29.163 38.074 A 4.525 4.525 0 0 1 28.673 37.84 Q 28.278 37.62 28.027 37.354 Q 27.668 36.972 27.556 36.569 A 1.408 1.408 0 0 1 27.539 36.499 Q 27.446 36.08 27.442 35.816 A 1.542 1.542 0 0 1 27.442 35.791 L 27.442 16.944 A 2.562 2.562 0 0 0 27.362 16.291 A 2.075 2.075 0 0 0 27.112 15.711 Q 26.782 15.186 26.001 15.186 A 1.974 1.974 0 0 0 25.684 15.21 Q 25.501 15.24 25.349 15.306 A 1.179 1.179 0 0 0 25.293 15.332 A 2.985 2.985 0 0 0 25.027 15.484 Q 24.851 15.596 24.658 15.747 L 24.146 15.137 Q 24.707 14.673 25.403 14.221 A 9.723 9.723 0 0 1 26.892 13.433 A 10.479 10.479 0 0 1 26.904 13.428 A 10.53 10.53 0 0 1 28.266 12.961 A 12.024 12.024 0 0 1 28.638 12.866 Q 29.566 12.647 30.591 12.647 Q 31.624 12.647 32.357 12.869 A 3.135 3.135 0 0 1 33.057 13.172 A 4.217 4.217 0 0 1 33.737 13.671 A 3.08 3.08 0 0 1 34.351 14.429 A 3.938 3.938 0 0 1 34.839 15.856 A 3.8 3.8 0 0 1 34.851 15.955 A 18.34 18.34 0 0 1 34.902 16.503 Q 34.922 16.752 34.93 16.968 A 8.179 8.179 0 0 1 34.937 17.285 Q 35.84 15.991 36.987 14.966 A 9.757 9.757 0 0 1 37.711 14.347 A 11.397 11.397 0 0 1 38.025 14.112 Q 38.599 13.697 39.246 13.367 Q 39.893 13.037 40.613 12.842 A 5.618 5.618 0 0 1 42.09 12.647 A 7.411 7.411 0 0 1 43.656 12.805 A 5.884 5.884 0 0 1 45.032 13.282 Q 46.314 13.916 47.193 15.406 A 8.79 8.79 0 0 1 47.827 16.745 Q 48.094 17.445 48.302 18.28 A 18.832 18.832 0 0 1 48.535 19.348 A 23.359 23.359 0 0 1 48.818 21.355 Q 48.926 22.43 48.969 23.669 A 50.272 50.272 0 0 1 48.999 25.44 Q 48.999 28.468 48.535 30.818 A 18.375 18.375 0 0 1 48.364 31.592 A 21.751 21.751 0 0 1 47.734 33.728 Q 47.352 34.806 46.881 35.708 A 12.575 12.575 0 0 1 46.704 36.035 A 13.396 13.396 0 0 1 45.63 37.675 A 10.045 10.045 0 0 1 44.385 39.026 A 13.466 13.466 0 0 1 43.003 40.117 A 10.505 10.505 0 0 1 41.773 40.845 A 12.137 12.137 0 0 1 40.482 41.403 A 9.292 9.292 0 0 1 39.246 41.761 A 16.193 16.193 0 0 1 38.386 41.92 Q 37.708 42.026 37.158 42.041 L 36.89 41.04 A 4.811 4.811 0 0 0 38.245 40.503 A 3.372 3.372 0 0 0 38.928 39.966 A 4.55 4.55 0 0 0 39.38 39.429 A 5.742 5.742 0 0 0 39.82 38.71 Q 40.007 38.349 40.174 37.925 A 10.376 10.376 0 0 0 40.283 37.635 Q 40.674 36.548 40.955 34.912 A 27.015 27.015 0 0 0 41.145 33.601 Q 41.286 32.439 41.37 31.043 A 67.023 67.023 0 0 0 41.452 29.263 Q 41.504 27.692 41.504 25.83 A 55.482 55.482 0 0 0 41.477 24.028 Q 41.42 22.301 41.248 21.082 A 15.668 15.668 0 0 0 41.223 20.911 A 17.92 17.92 0 0 0 41.035 19.869 Q 40.826 18.889 40.546 18.249 A 4.511 4.511 0 0 0 40.479 18.103 Q 40.045 17.202 39.526 16.876 A 1.354 1.354 0 0 0 39.453 16.834 A 2.512 2.512 0 0 0 38.746 16.572 A 2.235 2.235 0 0 0 38.306 16.529 A 2.25 2.25 0 0 0 37.473 16.68 A 2.112 2.112 0 0 0 37.048 16.907 A 4.63 4.63 0 0 0 36.096 17.774 A 7.555 7.555 0 0 0 35.62 18.415 A 6.347 6.347 0 0 0 35.413 18.75 A 11.185 11.185 0 0 1 35.278 18.979 Q 35.129 19.224 35.008 19.389 A 2.78 2.78 0 0 1 34.937 19.483 Z M 20.41 4.883 L 20.41 34.79 A 5.647 5.647 0 0 1 20.328 35.791 Q 20.229 36.337 20.014 36.76 A 2.49 2.49 0 0 1 19.422 37.525 A 3.073 3.073 0 0 1 18.414 38.09 Q 17.961 38.248 17.403 38.32 A 7.833 7.833 0 0 1 16.406 38.379 A 7.821 7.821 0 0 1 15.311 38.308 Q 14.769 38.231 14.332 38.071 A 2.979 2.979 0 0 1 13.379 37.525 Q 12.402 36.67 12.402 34.79 L 12.402 5.396 A 3.844 3.844 0 0 0 12.389 5.067 Q 12.376 4.911 12.349 4.779 A 1.527 1.527 0 0 0 12.28 4.541 A 1.397 1.397 0 0 0 12.147 4.277 A 1.061 1.061 0 0 0 11.939 4.041 A 1.136 1.136 0 0 0 11.498 3.816 A 1.365 1.365 0 0 0 11.414 3.797 A 3.082 3.082 0 0 0 11.051 3.747 A 3.94 3.94 0 0 0 10.742 3.736 A 4.358 4.358 0 0 0 10.313 3.759 Q 10.089 3.781 9.831 3.825 A 10.025 10.025 0 0 0 9.412 3.907 A 10.091 10.091 0 0 0 8.439 4.17 A 12.647 12.647 0 0 0 7.739 4.419 A 13.614 13.614 0 0 0 6.303 5.079 A 15.405 15.405 0 0 0 5.969 5.262 A 8.833 8.833 0 0 0 4.743 6.088 A 7.864 7.864 0 0 0 4.382 6.397 A 5.683 5.683 0 0 0 3.247 7.813 A 3.38 3.38 0 0 0 2.808 9.497 A 4.796 4.796 0 0 0 2.83 9.976 Q 2.854 10.21 2.902 10.407 A 1.988 1.988 0 0 0 3.015 10.742 Q 3.223 11.206 3.491 11.438 A 1.533 1.533 0 0 0 3.724 11.606 A 1.095 1.095 0 0 0 4.041 11.731 A 5.063 5.063 0 0 0 4.171 11.758 Q 4.352 11.792 4.443 11.792 A 2.957 2.957 0 0 0 4.854 11.765 Q 5.067 11.736 5.244 11.672 A 1.491 1.491 0 0 0 5.444 11.585 A 6.219 6.219 0 0 0 5.926 11.302 A 5.211 5.211 0 0 0 6.152 11.145 Q 6.47 10.913 6.751 10.706 A 1.06 1.06 0 0 1 7.398 10.498 A 1.455 1.455 0 0 1 7.739 10.541 A 1.969 1.969 0 0 1 8.02 10.633 A 1.666 1.666 0 0 1 8.45 10.892 A 2.077 2.077 0 0 1 8.63 11.06 Q 8.911 11.353 9.107 11.829 A 2.433 2.433 0 0 1 9.246 12.316 Q 9.302 12.623 9.302 12.989 A 4.242 4.242 0 0 1 9.229 13.792 A 3.104 3.104 0 0 1 8.923 14.673 Q 8.545 15.381 7.947 15.857 A 4.049 4.049 0 0 1 6.58 16.565 A 5.305 5.305 0 0 1 5.196 16.795 A 4.953 4.953 0 0 1 5.054 16.797 A 5.868 5.868 0 0 1 3.841 16.677 A 4.78 4.78 0 0 1 2.942 16.394 A 4.701 4.701 0 0 1 1.49 15.435 A 4.507 4.507 0 0 1 1.343 15.283 A 4.772 4.772 0 0 1 0.342 13.623 A 5.923 5.923 0 0 1 0.001 11.697 A 6.701 6.701 0 0 1 0 11.597 A 8.096 8.096 0 0 1 0.251 9.554 A 7.088 7.088 0 0 1 0.61 8.509 A 8.702 8.702 0 0 1 2.283 5.982 A 11.146 11.146 0 0 1 4.422 4.231 A 12.607 12.607 0 0 1 4.773 4.016 Q 6.201 3.174 7.861 2.613 Q 9.522 2.051 11.328 1.77 A 23.496 23.496 0 0 1 14.942 1.49 Q 16.797 1.49 17.888 1.815 A 4.563 4.563 0 0 1 18.054 1.868 A 6.615 6.615 0 0 1 18.691 2.12 Q 19.005 2.265 19.252 2.428 A 2.654 2.654 0 0 1 19.69 2.783 Q 20.165 3.269 20.29 3.795 A 1.656 1.656 0 0 1 20.313 3.907 Q 20.41 4.492 20.41 4.883 Z M 197.315 4.395 L 196.68 3.54 Q 197.266 2.783 198.108 2.124 Q 198.95 1.465 199.951 1.001 A 11.354 11.354 0 0 1 202.063 0.269 A 9.375 9.375 0 0 1 204.273 0 Q 207.886 0 210.62 1.575 Q 213.355 3.15 215.186 6.031 Q 217.017 8.911 217.944 12.989 A 36.448 36.448 0 0 1 218.695 17.861 A 47.491 47.491 0 0 1 218.872 22.046 Q 218.872 26.074 218.054 29.126 A 18.219 18.219 0 0 1 217.153 31.73 A 13.168 13.168 0 0 1 215.723 34.241 A 10.054 10.054 0 0 1 213.213 36.677 A 9.391 9.391 0 0 1 212.048 37.342 A 10.53 10.53 0 0 1 208.659 38.297 A 13.047 13.047 0 0 1 207.178 38.379 A 11.339 11.339 0 0 1 204.083 37.936 A 13.231 13.231 0 0 1 203.357 37.708 A 9.472 9.472 0 0 1 200.04 35.709 A 10.933 10.933 0 0 1 199.841 35.523 A 10.014 10.014 0 0 1 198.251 33.522 A 13.552 13.552 0 0 1 197.266 31.555 A 12.509 12.509 0 0 1 196.564 29.104 Q 196.344 27.916 196.286 26.55 A 23.716 23.716 0 0 1 196.265 25.537 Q 196.265 22.461 197.131 20.069 A 13.717 13.717 0 0 1 198.221 17.737 A 11.039 11.039 0 0 1 199.463 16.028 A 9.98 9.98 0 0 1 202.857 13.513 Q 204.785 12.647 206.934 12.647 A 8.824 8.824 0 0 1 207.698 12.678 A 6.43 6.43 0 0 1 208.423 12.781 Q 209.013 12.901 209.466 13.07 A 4.796 4.796 0 0 1 209.57 13.111 A 6.04 6.04 0 0 1 210.028 13.315 A 4.515 4.515 0 0 1 210.425 13.538 A 11.536 11.536 0 0 1 210.773 13.767 A 8.959 8.959 0 0 1 211.084 13.99 Q 210.62 11.548 209.79 9.436 A 17.29 17.29 0 0 0 208.815 7.354 A 13.503 13.503 0 0 0 207.8 5.786 A 9.922 9.922 0 0 0 206.311 4.192 A 8.399 8.399 0 0 0 205.164 3.369 Q 203.687 2.491 201.978 2.491 A 6.757 6.757 0 0 0 200.992 2.559 A 5.286 5.286 0 0 0 200.208 2.735 A 8.29 8.29 0 0 0 199.488 2.991 A 6.032 6.032 0 0 0 198.828 3.308 A 9.519 9.519 0 0 0 198.418 3.552 Q 198.219 3.677 198.053 3.799 A 4.818 4.818 0 0 0 197.864 3.943 Q 197.5 4.237 197.328 4.384 A 7.457 7.457 0 0 0 197.315 4.395 Z M 50.44 15.747 L 49.951 15.137 Q 50.513 14.673 51.209 14.221 A 9.723 9.723 0 0 1 52.698 13.433 A 10.479 10.479 0 0 1 52.71 13.428 A 10.53 10.53 0 0 1 54.072 12.961 A 12.024 12.024 0 0 1 54.443 12.866 Q 55.371 12.647 56.397 12.647 A 7.031 7.031 0 0 1 57.337 12.706 Q 58.172 12.819 58.765 13.147 A 4.613 4.613 0 0 1 59.64 13.768 A 3.821 3.821 0 0 1 60.193 14.392 A 4.856 4.856 0 0 1 60.938 15.991 A 17.722 17.722 0 0 1 61.107 16.706 Q 61.183 17.063 61.233 17.383 A 10.295 10.295 0 0 1 61.255 17.53 A 141.466 141.466 0 0 0 61.72 21.004 Q 62.439 25.879 63.281 28.736 Q 64.241 31.991 65.505 32.464 A 1.24 1.24 0 0 0 65.943 32.544 A 1.703 1.703 0 0 0 66.807 32.298 Q 67.068 32.146 67.323 31.901 A 4.003 4.003 0 0 0 67.59 31.616 Q 68.384 30.689 68.982 29.077 A 17.355 17.355 0 0 0 69.492 27.449 Q 69.752 26.459 69.946 25.318 A 25.902 25.902 0 0 0 70.277 22.225 A 30.783 30.783 0 0 0 70.313 20.728 Q 70.313 19.494 70.184 18.554 A 9.408 9.408 0 0 0 70.093 18.006 Q 69.925 17.155 69.728 16.512 A 8.99 8.99 0 0 0 69.605 16.138 Q 69.336 15.381 69.116 14.881 A 3.14 3.14 0 0 1 68.985 14.528 Q 68.897 14.237 68.897 13.99 A 0.753 0.753 0 0 1 69.137 13.426 A 0.981 0.981 0 0 1 69.19 13.379 A 2.574 2.574 0 0 1 69.62 13.091 A 3.192 3.192 0 0 1 69.885 12.964 A 3.734 3.734 0 0 1 70.715 12.72 Q 71.143 12.647 71.411 12.647 Q 72.005 12.647 72.324 12.784 A 0.874 0.874 0 0 1 72.437 12.842 A 0.897 0.897 0 0 1 72.666 13.051 Q 72.829 13.255 72.948 13.594 A 2.842 2.842 0 0 1 72.949 13.599 A 5.461 5.461 0 0 1 73.085 14.139 Q 73.198 14.706 73.255 15.467 A 31.497 31.497 0 0 1 73.328 16.978 A 37.993 37.993 0 0 1 73.34 17.945 A 31.84 31.84 0 0 1 73.276 19.916 A 41.991 41.991 0 0 1 73.084 22.071 Q 72.827 24.317 72.302 26.587 A 33.914 33.914 0 0 1 70.972 30.982 A 19.98 19.98 0 0 1 69.907 33.336 A 16.36 16.36 0 0 1 69.055 34.754 Q 67.944 36.402 66.541 37.39 A 5.321 5.321 0 0 1 63.403 38.379 A 5.881 5.881 0 0 1 61.348 38.029 A 5.352 5.352 0 0 1 59.888 37.207 A 9.373 9.373 0 0 1 57.999 35.183 A 11.567 11.567 0 0 1 57.361 34.156 A 19.392 19.392 0 0 1 56.152 31.488 A 23.612 23.612 0 0 1 55.64 29.932 Q 54.956 27.588 54.529 25.232 A 82.629 82.629 0 0 1 54.062 22.383 A 69.144 69.144 0 0 1 53.845 20.764 A 343.108 343.108 0 0 0 53.721 19.752 Q 53.546 18.345 53.403 17.305 A 119.907 119.907 0 0 0 53.394 17.237 A 6.497 6.497 0 0 0 53.284 16.669 Q 53.144 16.092 52.918 15.723 Q 52.588 15.186 51.807 15.186 A 1.989 1.989 0 0 0 51.465 15.214 A 1.443 1.443 0 0 0 51.087 15.332 Q 50.807 15.467 50.496 15.704 A 5.002 5.002 0 0 0 50.44 15.747 Z M 138.306 4.029 L 138.306 35.84 A 2.271 2.271 0 0 1 138.29 36.095 Q 138.265 36.322 138.196 36.597 A 1.537 1.537 0 0 1 137.971 37.089 Q 137.855 37.26 137.689 37.422 A 2.565 2.565 0 0 1 137.683 37.427 Q 137.374 37.726 136.85 37.961 A 5.132 5.132 0 0 1 136.511 38.098 A 3.882 3.882 0 0 1 135.921 38.258 Q 135.609 38.319 135.241 38.349 A 9.714 9.714 0 0 1 134.448 38.379 Q 133.154 38.379 132.422 38.074 Q 131.9 37.856 131.57 37.583 A 1.903 1.903 0 0 1 131.336 37.354 A 2.261 2.261 0 0 1 131.077 36.986 A 1.647 1.647 0 0 1 130.896 36.499 A 6.404 6.404 0 0 1 130.851 36.241 Q 130.813 35.994 130.811 35.816 A 1.764 1.764 0 0 1 130.811 35.791 L 130.811 4.297 A 2.562 2.562 0 0 0 130.731 3.645 A 2.075 2.075 0 0 0 130.481 3.064 Q 130.151 2.539 129.37 2.539 A 2.165 2.165 0 0 0 129.028 2.565 Q 128.822 2.598 128.65 2.674 A 2.448 2.448 0 0 0 128.376 2.817 Q 128.195 2.925 128.003 3.076 L 127.515 2.491 Q 128.076 2.027 128.76 1.575 A 8.835 8.835 0 0 1 129.959 0.914 A 10.004 10.004 0 0 1 130.261 0.782 A 11.06 11.06 0 0 1 131.748 0.284 A 12.399 12.399 0 0 1 132.007 0.22 Q 132.935 0 133.96 0 A 9.513 9.513 0 0 1 134.883 0.042 Q 135.806 0.132 136.406 0.418 A 2.78 2.78 0 0 1 136.426 0.428 Q 137.159 0.784 137.569 1.276 A 2.349 2.349 0 0 1 137.72 1.477 A 3.094 3.094 0 0 1 138.154 2.442 A 2.892 2.892 0 0 1 138.22 2.796 Q 138.306 3.491 138.306 4.029 Z M 76.533 22.753 A 18.684 18.684 0 0 0 76.343 25.489 A 21.89 21.89 0 0 0 76.343 25.535 Q 76.346 27.008 76.547 28.315 A 13.468 13.468 0 0 0 77.271 31.104 A 13.926 13.926 0 0 0 77.982 32.67 A 10.975 10.975 0 0 0 79.749 35.132 Q 81.299 36.743 83.35 37.561 Q 85.401 38.379 87.647 38.379 Q 89.893 38.379 91.943 37.512 Q 93.994 36.646 95.545 34.961 A 11.288 11.288 0 0 0 96.822 33.274 A 13.947 13.947 0 0 0 98.023 30.811 A 13.991 13.991 0 0 0 98.746 27.984 A 18.847 18.847 0 0 0 98.95 25.147 Q 98.95 23.535 98.718 22.141 A 12.688 12.688 0 0 0 98.023 19.568 A 13.147 13.147 0 0 0 97.311 18.045 A 10.323 10.323 0 0 0 95.545 15.674 Q 93.994 14.136 91.943 13.391 A 12.492 12.492 0 0 0 87.647 12.647 Q 85.401 12.647 83.35 13.452 Q 81.299 14.258 79.749 15.869 A 10.652 10.652 0 0 0 78.432 17.554 A 13.215 13.215 0 0 0 77.271 19.886 A 11.597 11.597 0 0 0 77.239 19.968 Q 76.756 21.249 76.533 22.753 Z M 143.086 22.753 A 18.684 18.684 0 0 0 142.896 25.489 A 21.89 21.89 0 0 0 142.896 25.535 Q 142.899 27.008 143.099 28.315 A 13.468 13.468 0 0 0 143.823 31.104 A 13.926 13.926 0 0 0 144.535 32.67 A 10.975 10.975 0 0 0 146.301 35.132 Q 147.852 36.743 149.902 37.561 Q 151.953 38.379 154.199 38.379 Q 156.445 38.379 158.496 37.512 Q 160.547 36.646 162.097 34.961 A 11.288 11.288 0 0 0 163.374 33.274 A 13.947 13.947 0 0 0 164.575 30.811 A 13.991 13.991 0 0 0 165.299 27.984 A 18.847 18.847 0 0 0 165.503 25.147 Q 165.503 23.535 165.271 22.141 A 12.688 12.688 0 0 0 164.575 19.568 A 13.147 13.147 0 0 0 163.864 18.045 A 10.323 10.323 0 0 0 162.097 15.674 Q 160.547 14.136 158.496 13.391 A 12.492 12.492 0 0 0 154.199 12.647 Q 151.953 12.647 149.902 13.452 Q 147.852 14.258 146.301 15.869 A 10.652 10.652 0 0 0 144.985 17.554 A 13.215 13.215 0 0 0 143.823 19.886 A 11.597 11.597 0 0 0 143.792 19.968 Q 143.309 21.249 143.086 22.753 Z M 91.358 25.244 A 51.92 51.92 0 0 0 91.255 21.929 A 46.858 46.858 0 0 0 91.223 21.472 A 19.981 19.981 0 0 0 91.033 19.805 Q 90.904 18.994 90.711 18.283 A 12.259 12.259 0 0 0 90.698 18.238 Q 90.369 17.044 89.797 16.258 A 4.117 4.117 0 0 0 89.575 15.979 A 2.396 2.396 0 0 0 87.831 15.142 A 3.25 3.25 0 0 0 87.647 15.137 A 2.601 2.601 0 0 0 86.689 15.308 A 2.366 2.366 0 0 0 85.718 16.028 A 5.028 5.028 0 0 0 85.089 17.023 Q 84.852 17.508 84.675 18.091 A 9.095 9.095 0 0 0 84.595 18.372 A 14.593 14.593 0 0 0 84.271 19.925 Q 84.147 20.726 84.086 21.622 A 23.362 23.362 0 0 0 84.082 21.68 A 58.025 58.025 0 0 0 83.96 25.489 A 58.586 58.586 0 0 0 84.082 29.309 Q 84.204 31.173 84.593 32.636 A 11.872 11.872 0 0 0 84.595 32.642 A 7.996 7.996 0 0 0 84.965 33.728 Q 85.28 34.465 85.718 34.998 A 2.345 2.345 0 0 0 87.426 35.881 A 3.047 3.047 0 0 0 87.647 35.889 A 2.49 2.49 0 0 0 88.651 35.692 Q 89.172 35.465 89.563 34.977 A 2.961 2.961 0 0 0 89.575 34.961 Q 90.21 34.157 90.589 32.912 A 9.629 9.629 0 0 0 90.698 32.52 A 16.44 16.44 0 0 0 91.025 30.908 A 22.207 22.207 0 0 0 91.223 29.102 Q 91.358 27.198 91.358 25.244 Z M 157.91 25.244 A 51.92 51.92 0 0 0 157.807 21.929 A 46.858 46.858 0 0 0 157.776 21.472 A 19.981 19.981 0 0 0 157.586 19.805 Q 157.457 18.994 157.264 18.283 A 12.259 12.259 0 0 0 157.251 18.238 Q 156.922 17.044 156.35 16.258 A 4.117 4.117 0 0 0 156.128 15.979 A 2.396 2.396 0 0 0 154.383 15.142 A 3.25 3.25 0 0 0 154.199 15.137 A 2.601 2.601 0 0 0 153.241 15.308 A 2.366 2.366 0 0 0 152.271 16.028 A 5.028 5.028 0 0 0 151.641 17.023 Q 151.405 17.508 151.228 18.091 A 9.095 9.095 0 0 0 151.148 18.372 A 14.593 14.593 0 0 0 150.824 19.925 Q 150.7 20.726 150.639 21.622 A 23.362 23.362 0 0 0 150.635 21.68 A 58.025 58.025 0 0 0 150.513 25.489 A 58.586 58.586 0 0 0 150.635 29.309 Q 150.757 31.173 151.146 32.636 A 11.872 11.872 0 0 0 151.148 32.642 A 7.996 7.996 0 0 0 151.517 33.728 Q 151.833 34.465 152.271 34.998 A 2.345 2.345 0 0 0 153.979 35.881 A 3.047 3.047 0 0 0 154.199 35.889 A 2.49 2.49 0 0 0 155.204 35.692 Q 155.725 35.465 156.116 34.977 A 2.961 2.961 0 0 0 156.128 34.961 Q 156.763 34.157 157.141 32.912 A 9.629 9.629 0 0 0 157.251 32.52 A 16.44 16.44 0 0 0 157.578 30.908 A 22.207 22.207 0 0 0 157.776 29.102 Q 157.91 27.198 157.91 25.244 Z M 211.377 24.732 L 211.377 23.645 A 33.101 33.101 0 0 0 211.368 22.883 Q 211.359 22.493 211.341 22.059 A 57.283 57.283 0 0 0 211.328 21.765 A 38.008 38.008 0 0 0 211.239 20.385 A 45.676 45.676 0 0 0 211.157 19.507 A 15.722 15.722 0 0 0 210.948 18.079 A 13.013 13.013 0 0 0 210.767 17.285 A 8.589 8.589 0 0 0 209.461 15.93 Q 208.74 15.332 207.617 15.332 Q 205.887 15.332 204.994 17.387 A 7.03 7.03 0 0 0 204.822 17.823 A 11.29 11.29 0 0 0 204.391 19.44 Q 204.041 21.222 203.957 23.821 A 53.353 53.353 0 0 0 203.931 25.537 A 44.573 44.573 0 0 0 203.983 27.735 A 33.99 33.99 0 0 0 204.138 29.737 A 22.474 22.474 0 0 0 204.343 31.195 Q 204.519 32.196 204.773 33.008 A 8.144 8.144 0 0 0 205.112 33.912 Q 205.442 34.647 205.872 35.132 A 2.393 2.393 0 0 0 206.46 35.622 A 1.981 1.981 0 0 0 207.471 35.889 A 2.656 2.656 0 0 0 209.774 34.448 Q 211.129 32.277 211.339 26.835 A 54.712 54.712 0 0 0 211.377 24.732 Z" vector-effect="non-scaling-stroke"/></g></svg>